<?xml version="1.0" encoding="UTF-8"?>
<svg xmlns="http://www.w3.org/2000/svg" xmlns:xlink="http://www.w3.org/1999/xlink" width="500px" height="566px" viewBox="0 0 500 566" version="1.1">
<g id="surface1">
<path style=" stroke:none;fill-rule:nonzero;fill:rgb(16.862745%,16.862745%,16.470588%);fill-opacity:1;" d="M 276.003906 444.230469 C 275.652344 444.5625 267.132812 452.347656 249.980469 452.347656 C 233.058594 452.347656 224.542969 444.773438 223.976562 444.253906 C 219.574219 439.976562 212.492188 439.976562 208.117188 444.375 C 203.714844 448.773438 203.714844 455.921875 208.117188 460.34375 C 209.597656 461.847656 223.484375 474.949219 249.980469 474.949219 C 276.476562 474.949219 290.359375 461.847656 291.839844 460.34375 C 296.195312 455.992188 296.195312 449.007812 291.914062 444.585938 C 287.605469 440.164062 280.5 440.023438 276.003906 444.253906 Z M 276.003906 444.230469 "/>
<path style=" stroke:none;fill-rule:nonzero;fill:rgb(16.862745%,16.862745%,16.470588%);fill-opacity:1;" d="M 182.210938 328.160156 C 175.972656 328.160156 170.914062 333.21875 170.914062 339.449219 L 170.914062 362.03125 C 170.914062 368.261719 175.972656 373.320312 182.210938 373.320312 C 188.445312 373.320312 193.503906 368.261719 193.503906 362.03125 L 193.503906 339.449219 C 193.503906 333.214844 188.445312 328.160156 182.210938 328.160156 Z M 182.210938 328.160156 "/>
<path style=" stroke:none;fill-rule:nonzero;fill:rgb(16.862745%,16.862745%,16.470588%);fill-opacity:1;" d="M 317.75 328.160156 C 311.515625 328.160156 306.457031 333.21875 306.457031 339.449219 L 306.457031 362.03125 C 306.457031 368.261719 311.515625 373.320312 317.75 373.320312 C 323.988281 373.320312 329.046875 368.261719 329.046875 362.03125 L 329.046875 339.449219 C 329.046875 333.214844 323.988281 328.160156 317.75 328.160156 Z M 317.75 328.160156 "/>
<path style=" stroke:none;fill-rule:nonzero;fill:rgb(16.862745%,16.862745%,16.470588%);fill-opacity:1;" d="M 487.179688 260.421875 C 487.179688 241.746094 471.976562 226.550781 453.292969 226.550781 L 452.800781 226.550781 C 447.8125 135.808594 383.214844 59.4375 294.335938 39.679688 C 291.371094 23.757812 277.675781 12.042969 261.179688 12.042969 L 238.800781 12.042969 C 222.304688 12.042969 208.609375 23.757812 205.644531 39.679688 C 116.765625 59.4375 52.167969 135.808594 47.183594 226.550781 L 46.6875 226.550781 C 28.003906 226.550781 12.800781 241.746094 12.800781 260.421875 C 12.800781 279.097656 28.003906 294.289062 46.6875 294.289062 L 46.6875 336.085938 C 39.675781 344.835938 35.390625 355.820312 35.390625 367.675781 C 35.390625 392.769531 53.675781 413.65625 77.960938 417.75 C 92.03125 463.238281 122.058594 501.414062 163.214844 525.824219 L 176.699219 533.871094 C 198.957031 546.996094 224.300781 553.957031 250 553.957031 C 275.695312 553.957031 301.039062 547.019531 323.347656 533.847656 L 336.761719 525.847656 C 377.917969 501.433594 407.964844 463.257812 422.039062 417.796875 C 446.160156 413.847656 464.609375 392.867188 464.609375 367.675781 C 464.609375 355.796875 460.300781 344.765625 453.3125 336.015625 L 453.3125 294.289062 C 471.996094 294.289062 487.199219 279.097656 487.199219 260.421875 Z M 153.214844 85.332031 L 151.59375 101.234375 C 151.027344 107.441406 155.546875 112.96875 161.757812 113.535156 C 162.085938 113.652344 162.558594 113.652344 162.886719 113.652344 C 168.652344 113.652344 173.5 109.347656 174.183594 103.492188 L 177.265625 72.539062 C 185.523438 68.917969 194.066406 65.789062 202.984375 63.414062 L 199.195312 101.234375 C 198.585938 107.441406 203.101562 112.96875 209.316406 113.605469 C 215.621094 114.21875 221.058594 109.703125 221.691406 103.492188 L 227.550781 44.785156 C 228.140625 39 232.964844 34.625 238.800781 34.625 L 261.179688 34.625 C 267.015625 34.625 271.839844 39 272.425781 44.785156 L 278.285156 103.492188 C 278.875 109.324219 283.769531 113.652344 289.511719 113.652344 C 289.886719 113.652344 290.265625 113.628906 290.640625 113.605469 C 296.851562 112.996094 301.371094 107.445312 300.757812 101.234375 L 296.96875 63.414062 C 305.042969 65.578125 312.785156 68.351562 320.3125 71.527344 L 323.398438 103.46875 C 324.078125 109.230469 328.925781 113.628906 334.691406 113.628906 L 335.820312 113.628906 C 342.035156 112.949219 346.550781 107.421875 345.988281 101.210938 L 344.269531 83.710938 C 393.566406 113.839844 426.484375 166.601562 430.207031 226.53125 L 69.75 226.554688 C 73.398438 167.632812 105.308594 115.703125 153.214844 85.335938 Z M 35.371094 260.421875 C 35.371094 254.1875 40.429688 249.128906 46.667969 249.128906 L 453.292969 249.128906 C 459.53125 249.128906 464.589844 254.1875 464.589844 260.421875 C 464.589844 266.652344 459.53125 271.710938 453.292969 271.710938 L 46.667969 271.710938 C 40.429688 271.710938 35.371094 266.652344 35.371094 260.421875 Z M 91.847656 294.289062 L 91.847656 317.175781 C 87.449219 316.660156 82.363281 316.753906 78.953125 317.433594 C 75.589844 317.90625 72.363281 318.773438 69.257812 319.878906 L 69.257812 294.289062 Z M 413.3125 395.898438 C 408.183594 395.898438 403.710938 399.355469 402.394531 404.296875 C 390.957031 447.410156 363.566406 483.679688 325.1875 506.445312 L 311.800781 514.421875 C 274.242188 536.601562 225.695312 536.578125 188.234375 514.445312 L 174.773438 506.398438 C 136.414062 483.65625 109 447.386719 97.589844 404.273438 C 96.273438 399.332031 91.355469 395.875 86.226562 395.875 C 70.648438 395.875 57.988281 383.222656 57.988281 367.652344 C 57.988281 353.726562 68.390625 341.707031 82.671875 339.6875 C 87.875 338.722656 93.519531 339.851562 98.039062 342.132812 C 101.523438 343.917969 105.710938 343.753906 109.074219 341.707031 C 112.441406 339.664062 114.464844 336.015625 114.464844 332.089844 L 114.464844 294.269531 L 385.546875 294.269531 L 385.546875 332.089844 C 385.546875 336.015625 387.59375 339.660156 390.9375 341.707031 C 394.277344 343.753906 398.46875 343.941406 401.972656 342.132812 C 405.527344 340.34375 409.480469 339.425781 413.785156 339.425781 C 414.984375 339.425781 416.210938 339.472656 417.855469 339.78125 C 431.648438 341.730469 442.046875 353.726562 442.046875 367.675781 C 442.046875 383.246094 429.386719 395.898438 413.363281 395.898438 Z M 430.703125 319.785156 C 427.738281 318.75 424.679688 317.949219 421.5 317.503906 C 417.21875 316.679688 412.535156 316.65625 408.113281 317.148438 L 408.113281 294.265625 L 430.703125 294.265625 Z M 430.703125 319.785156 "/>
</g>
</svg>
